<svg width="102" height="18" viewBox="0 0 102 18" fill="none" xmlns="http://www.w3.org/2000/svg">
<path fill-rule="evenodd" clip-rule="evenodd" d="M87.1912 16.226C87.0861 16.8387 87.7291 17.3059 88.2794 17.0166L93 14.5348L97.7206 17.0166C98.2709 17.3059 98.9139 16.8387 98.8089 16.226L97.9073 10.9695L101.726 7.24679C102.172 6.81289 101.926 6.05691 101.311 5.96752L96.0329 5.20061L93.6726 0.418076C93.3974 -0.139359 92.6026 -0.139359 92.3275 0.418076L89.9671 5.20061L84.6893 5.96752C84.0741 6.05691 83.8285 6.81289 84.2736 7.24679L88.0927 10.9695L87.1912 16.226ZM92.651 13.0237L88.9265 14.9818L89.6378 10.8344C89.6795 10.5911 89.5988 10.3429 89.4221 10.1706L86.4089 7.23341L90.573 6.62832C90.8173 6.59282 91.0285 6.4394 91.1377 6.21804L93 2.44466L94.8623 6.21804C94.9715 6.4394 95.1827 6.59282 95.427 6.62832L99.5912 7.23341L96.5779 10.1706C96.4012 10.3429 96.3205 10.5911 96.3622 10.8344L97.0736 14.9818L93.349 13.0237C93.1305 12.9088 92.8695 12.9088 92.651 13.0237Z" fill="#C7CDD4"/>
<path fill-rule="evenodd" clip-rule="evenodd" d="M66.1912 16.226C66.0861 16.8387 66.7291 17.3059 67.2794 17.0166L72 14.5348L76.7206 17.0166C77.2709 17.3059 77.9139 16.8387 77.8089 16.226L76.9073 10.9695L80.7264 7.24679C81.1715 6.81289 80.9259 6.05691 80.3107 5.96752L75.0329 5.20061L72.6726 0.418076C72.3974 -0.139359 71.6026 -0.139359 71.3275 0.418076L68.9671 5.20061L63.6893 5.96752C63.0741 6.05691 62.8285 6.81289 63.2736 7.24679L67.0927 10.9695L66.1912 16.226ZM71.651 13.0237L67.9265 14.9818L68.6378 10.8344C68.6795 10.5911 68.5988 10.3429 68.4221 10.1706L65.4089 7.23341L69.573 6.62832C69.8173 6.59282 70.0285 6.4394 70.1377 6.21804L72 2.44466L73.8623 6.21804C73.9715 6.4394 74.1827 6.59282 74.427 6.62832L78.5912 7.23341L75.5779 10.1706C75.4012 10.3429 75.3205 10.5911 75.3622 10.8344L76.0736 14.9818L72.349 13.0237C72.1305 12.9088 71.8695 12.9088 71.651 13.0237Z" fill="#C7CDD4"/>
<path fill-rule="evenodd" clip-rule="evenodd" d="M66.1912 16.226C66.0861 16.8387 66.7291 17.3059 67.2794 17.0166L72 14.5348L72 0C71.9999 0 71.9999 0 71.9998 0C71.7324 6.95916e-05 71.465 0.139428 71.3275 0.418076L68.9671 5.20061L63.6893 5.96752C63.0741 6.05691 62.8285 6.81289 63.2736 7.24679L67.0927 10.9695L66.1912 16.226Z" fill="#FFBD1F"/>
<path d="M46.2794 17.0166C45.7291 17.3059 45.0861 16.8387 45.1911 16.226L46.0927 10.9695L42.2736 7.24679C41.8285 6.81289 42.0741 6.05691 42.6893 5.96752L47.9671 5.20061L50.3274 0.418076C50.6026 -0.139359 51.3974 -0.139359 51.6725 0.418076L54.0329 5.20061L59.3107 5.96752C59.9259 6.05691 60.1715 6.81289 59.7264 7.24679L55.9073 10.9695L56.8088 16.226C56.9139 16.8387 56.2709 17.3059 55.7206 17.0166L51 14.5348L46.2794 17.0166Z" fill="#FFBD1F"/>
<path d="M25.2794 17.0166C24.7291 17.3059 24.0861 16.8387 24.1912 16.226L25.0927 10.9695L21.2736 7.24679C20.8285 6.81289 21.0741 6.05691 21.6893 5.96752L26.9671 5.20061L29.3275 0.418076C29.6026 -0.139359 30.3974 -0.139359 30.6726 0.418076L33.0329 5.20061L38.3107 5.96752C38.9259 6.05691 39.1715 6.81289 38.7264 7.24679L34.9073 10.9695L35.8089 16.226C35.9139 16.8387 35.2709 17.3059 34.7206 17.0166L30 14.5348L25.2794 17.0166Z" fill="#FFBD1F"/>
<path d="M4.27935 17.0166C3.72913 17.3059 3.08606 16.8387 3.19114 16.226L4.0927 10.9695L0.273621 7.24679C-0.171517 6.81289 0.074116 6.05691 0.689281 5.96752L5.96712 5.20061L8.32744 0.418076C8.60255 -0.139359 9.39743 -0.139359 9.67254 0.418076L12.0329 5.20061L17.3107 5.96752C17.9259 6.05691 18.1715 6.81289 17.7264 7.24679L13.9073 10.9695L14.8088 16.226C14.9139 16.8387 14.2709 17.3059 13.7206 17.0166L8.99999 14.5348L4.27935 17.0166Z" fill="#FFBD1F"/>
</svg>
