<svg width="10" height="9" viewBox="0 0 10 9" fill="none" xmlns="http://www.w3.org/2000/svg">
<path d="M2.14645 0.646447C2.34171 0.451184 2.65829 0.451184 2.85355 0.646447L4.85355 2.64645C5.04882 2.84171 5.04882 3.15829 4.85355 3.35355C4.65829 3.54882 4.34171 3.54882 4.14645 3.35355L3 2.20711V8C3 8.27614 2.77614 8.5 2.5 8.5C2.22386 8.5 2 8.27614 2 8V2.20711L0.853553 3.35355C0.658291 3.54882 0.341709 3.54882 0.146447 3.35355C-0.0488155 3.15829 -0.0488155 2.84171 0.146447 2.64645L2.14645 0.646447ZM7 6.79289V1C7 0.723858 7.22386 0.5 7.5 0.5C7.77614 0.5 8 0.723858 8 1V6.79289L9.14645 5.64645C9.34171 5.45118 9.65829 5.45118 9.85355 5.64645C10.0488 5.84171 10.0488 6.15829 9.85355 6.35355L7.85355 8.35355C7.75979 8.44732 7.63261 8.5 7.5 8.5C7.36739 8.5 7.24021 8.44732 7.14645 8.35355L5.14645 6.35355C4.95118 6.15829 4.95118 5.84171 5.14645 5.64645C5.34171 5.45118 5.65829 5.45118 5.85355 5.64645L7 6.79289Z" fill="#888789"/>
</svg>
