<svg width="17" height="16" viewBox="0 0 17 16" fill="none" xmlns="http://www.w3.org/2000/svg">
<path fill-rule="evenodd" clip-rule="evenodd" d="M6.24917 10.1696L10.5 13.0846V2.91546L6.24917 5.83046C6.11 5.92462 5.94583 5.97629 5.7775 5.97629H2.16667V10.0238H5.7775C5.94583 10.0238 6.11 10.0755 6.24917 10.1696ZM10.8625 0.645462C11.1175 0.470462 11.4483 0.451295 11.7217 0.596295C11.995 0.740462 12.1667 1.0238 12.1667 1.33296V14.6663C12.1667 14.9763 11.995 15.2596 11.7217 15.4038C11.6 15.468 11.4667 15.4996 11.3333 15.4996C11.1683 15.4996 11.0033 15.4513 10.8625 15.3546L5.51917 11.6905H1.33333C0.873333 11.6905 0.5 11.318 0.5 10.8571V5.14296C0.5 4.68213 0.873333 4.30963 1.33333 4.30963H5.51917L10.8625 0.645462ZM14.1444 4.8508C14.5019 4.5633 15.0277 4.61913 15.3161 4.97747C16.6794 6.67247 16.6794 9.32747 15.3161 11.0225C15.1511 11.2266 14.9094 11.3333 14.6661 11.3333C14.4827 11.3333 14.2986 11.2733 14.1444 11.1491C13.7861 10.8608 13.7286 10.3366 14.0169 9.97747C14.8802 8.9058 14.8802 7.09413 14.0169 6.02247C13.7286 5.6633 13.7861 5.13913 14.1444 4.8508Z" fill="white"/>
</svg>
