<svg width="12" height="12" viewBox="0 0 16 16" fill="none" xmlns="http://www.w3.org/2000/svg">
<rect width="16" height="16" fill="white"/>
<path fill-rule="evenodd" clip-rule="evenodd" d="M8 16C12.4183 16 16 12.4183 16 8C16 3.58172 12.4183 0 8 0C3.58172 0 0 3.58172 0 8C0 12.4183 3.58172 16 8 16Z" fill="#F58F38"/>
<path fill-rule="evenodd" clip-rule="evenodd" d="M8.53924 4C9.15292 4.07751 10.0458 4.63615 10.3753 5.37922C10.3877 5.40777 10.3993 5.43302 10.4102 5.45691L10.4102 5.45692C10.4794 5.60747 10.5239 5.70436 10.589 6.23722L10.5975 6.30485C10.6328 6.58874 10.659 6.79997 10.7827 6.92148C10.8879 7.02283 11.1518 7.02944 11.3887 7.03538C11.5767 7.04009 11.7477 7.04437 11.8089 7.09522L11.9145 7.18343L11.9774 7.32242L12 7.43468L11.9849 9.47678C11.9774 10.864 10.916 12 9.60815 12H6.37676C5.06891 12 4 10.864 4 9.47678V6.52857C4 5.13866 5.06891 4 6.37676 4H8.53924ZM9.5582 8.5C9.80119 8.5 10 8.725 10 9C10 9.27222 9.80119 9.5 9.5582 9.5H6.44425C6.19881 9.5 6 9.27222 6 9C6 8.725 6.19881 8.5 6.44425 8.5H9.5582ZM9 6.89862C9 6.62438 8.77144 6.4 8.48928 6.4H6.51072C6.22856 6.4 6 6.62438 6 6.89862C6 7.17285 6.22856 7.4 6.51072 7.4H8.48928C8.77144 7.4 9 7.17285 9 6.89862Z" fill="white"/>
</svg>
