<svg width="320" height="320" viewBox="0 0 320 320" fill="none" xmlns="http://www.w3.org/2000/svg">
<path fill-rule="evenodd" clip-rule="evenodd" d="M320 159.994C320 248.37 248.364 320 160.002 320C71.6332 320 0 248.37 0 159.994C0 71.6313 71.6332 0 160.002 0C248.364 0 320 71.6313 320 159.994Z" fill="#EDF1F6"/>
<path d="M272.733 184.88L155.511 213.066L38.3041 184.88H272.733Z" fill="#A82342"/>
<path d="M278.168 113.37C278.168 117.037 281.123 119.786 284.629 119.786C288.136 119.786 291.06 117.037 291.06 113.37C291.06 109.75 288.136 107 284.629 107C281.123 107 278.168 109.75 278.168 113.37ZM279.332 113.37C279.332 110.299 281.628 107.947 284.629 107.947C287.6 107.947 289.896 110.299 289.896 113.37C289.896 116.502 287.6 118.855 284.629 118.855C281.628 118.855 279.332 116.502 279.332 113.37ZM282.134 117.128H283.297V113.905H284.537L286.574 117.128H287.814L285.686 113.829C286.788 113.707 287.646 113.141 287.646 111.797C287.646 110.361 286.803 109.658 285.027 109.658H282.134V117.128ZM283.297 110.59H284.844C285.625 110.59 286.482 110.743 286.482 111.735C286.482 112.927 285.548 112.973 284.507 112.973H283.297V110.59Z" fill="#283545"/>
<path d="M27.9999 168.26H59.9695V162.256H40.7235V139.066H56.7235V133.062H40.7235V113.003H59.4336V107H27.9999V168.26Z" fill="#283545"/>
<path d="M158.543 142.411C158.834 134.024 161.268 128.051 166.03 128.051C170.225 128.051 172.307 133.795 172.476 142.411H158.543ZM183.255 146.948C183.331 145.252 183.331 144.794 183.331 143.725C183.331 131.274 176.564 124.201 165.953 124.201C154.531 124.201 146.707 132.71 146.707 146.322C146.707 160.819 154.684 169.42 167.086 169.42C171.787 169.42 175.385 168.427 180.009 165.387L180.821 159.567C177.176 162.53 173.976 163.6 170.654 163.6C162.845 163.6 158.543 157.168 158.543 146.948H183.255Z" fill="#283545"/>
<path d="M143.109 127.685C139.296 125.103 134.779 124.37 131.013 124.37C118.672 124.37 110.282 133.597 110.282 147.575C110.282 160.728 118.442 169.238 130.278 169.238C134.611 169.238 137.643 168.825 141.287 166.411L142.42 160.774C139.266 163.081 137.03 163.509 134.014 163.509C126.756 163.509 122.515 157.78 122.515 146.765C122.515 135.659 126.251 129.365 132.131 129.105C137.061 128.891 139.373 131.275 141.317 133.077L143.109 127.685Z" fill="#283545"/>
<path d="M215.729 124.553C214.841 124.464 214.443 124.464 213.861 124.464C208.855 124.464 205.456 127.871 202.118 136.197V125.365H191.354V168.263H202.118V145.332C202.118 140.321 205.854 136.197 210.462 136.197C212.009 136.197 213.31 136.426 215.255 137.541L215.729 124.553Z" fill="#283545"/>
<path d="M91.3724 168.26H102.151V125.363H91.3724V149.806C91.3724 157.337 89.1523 161.63 84.2834 161.63C79.5675 161.63 77.5158 158.117 77.5158 152.754V125.363H66.7368V153.946C66.7368 166.061 72.7235 169.055 79.4144 169.055C85.0796 169.055 88.9686 165.786 91.3724 161.722V168.26Z" fill="#283545"/>
<path d="M245.326 168.26H256.105V144.718C256.105 133.047 260.438 131.993 262.949 131.993C266.225 131.993 269.395 134.208 269.395 142.198V168.26H280.174V138.653C280.174 126.86 273.131 124.37 267.971 124.37C263.347 124.37 259.029 127.043 256.105 131.809V125.363H245.326V168.26Z" fill="#283545"/>
<path d="M222.88 107H234.042V118.152H222.88V107Z" fill="#283545"/>
<path d="M222.788 168.26H234.134V125.363H222.788V168.26Z" fill="#283545"/>
</svg>
