<svg width="24" height="24" viewBox="0 0 24 24" fill="none" xmlns="http://www.w3.org/2000/svg">
<path fill-rule="evenodd" clip-rule="evenodd" d="M12 24C18.6274 24 24 18.6274 24 12C24 5.37258 18.6274 0 12 0C5.37258 0 0 5.37258 0 12C0 18.6274 5.37258 24 12 24Z" fill="#9043B7"/>
<path fill-rule="evenodd" clip-rule="evenodd" d="M15.16 18.0131C15.3923 18.3561 15.8586 18.4458 16.2016 18.2135C18.248 16.8272 19.5 14.519 19.5 12C19.5 7.85786 16.1421 4.5 12 4.5C11.5858 4.5 11.25 4.83579 11.25 5.25C11.25 5.66421 11.5858 6 12 6C15.3137 6 18 8.68629 18 12C18 14.0161 16.999 15.8615 15.3603 16.9716C15.0174 17.2039 14.9277 17.6702 15.16 18.0131ZM7.56807 5.94898C7.90206 5.70398 8.37142 5.77613 8.61642 6.11012C8.86142 6.44411 8.78927 6.91347 8.45528 7.15847C8.2764 7.28968 8.10484 7.43073 7.94144 7.58089C7.63645 7.86116 7.162 7.84112 6.88172 7.53613C6.60145 7.23114 6.62149 6.75669 6.92648 6.47642C7.13048 6.28895 7.34468 6.11285 7.56807 5.94898ZM5.23983 8.74831C5.41962 8.37515 5.86788 8.21839 6.24104 8.39818C6.6142 8.57797 6.77096 9.02622 6.59117 9.39938C6.20383 10.2033 6 11.0864 6 12C6 12.4142 5.66421 12.75 5.25 12.75C4.83579 12.75 4.5 12.4142 4.5 12C4.5 10.8598 4.75516 9.75427 5.23983 8.74831ZM5.30751 13.1638C4.90969 13.2792 4.68076 13.6953 4.79616 14.0931C5.11125 15.1792 5.66898 16.1766 6.42259 17.0143C6.50069 17.1011 6.58079 17.1861 6.66283 17.2692C6.95385 17.564 7.42872 17.567 7.72347 17.276C8.01822 16.985 8.02125 16.5101 7.73023 16.2153C7.6645 16.1488 7.60033 16.0807 7.53777 16.0111C6.93453 15.3405 6.48852 14.543 6.23677 13.6752C6.12136 13.2774 5.70532 13.0484 5.30751 13.1638ZM8.93575 18.8473C8.55776 18.6779 8.38865 18.2342 8.55804 17.8562C8.72743 17.4782 9.17117 17.3091 9.54917 17.4785C10.313 17.8207 11.1432 18 12 18C12.56 18 13.109 17.9235 13.6365 17.7743C14.0351 17.6616 14.4496 17.8933 14.5623 18.2919C14.675 18.6905 14.4433 19.105 14.0447 19.2177C13.3846 19.4044 12.6983 19.5 12 19.5C10.9307 19.5 9.89156 19.2756 8.93575 18.8473Z" fill="white"/>
<path fill-rule="evenodd" clip-rule="evenodd" d="M12 15C12.4142 15 12.75 14.7761 12.75 14.5V12.75H14.5C14.7761 12.75 15 12.4142 15 12C15 11.5858 14.7761 11.25 14.5 11.25H12.75V9.5C12.75 9.22386 12.4142 9 12 9C11.5858 9 11.25 9.22386 11.25 9.5V11.25H9.5C9.22386 11.25 9 11.5858 9 12C9 12.4142 9.22386 12.75 9.5 12.75H11.25V14.5C11.25 14.7761 11.5858 15 12 15Z" fill="white"/>
</svg>
