<svg width="320" height="320" viewBox="0 0 320 320" fill="none" xmlns="http://www.w3.org/2000/svg">
<g id="logos/brands/intermate">
<g id="Dr._Oetker-Logo">
<path id="Rahmen" d="M159.996 56C212.386 56 260.586 70.8496 280.164 80.873C297.887 89.9481 317.482 99.5089 319.208 125.401C321.115 153.765 319.893 183.371 312.052 195.493C305.062 206.331 296.124 222.166 251.984 243.938C207.842 265.692 159.885 264.969 159.996 264.841C160.106 264.969 112.145 265.692 68.0223 243.938C23.8829 222.166 14.9467 206.331 7.93626 195.493C0.114943 183.371 -1.10872 153.765 0.782452 125.401C2.52578 99.5095 22.1197 89.9487 39.8429 80.8736C59.4209 70.8496 107.62 56 159.996 56Z" fill="#ED1C24"/>
<path id="weiss" d="M265.614 201.058C293.567 187.595 297.124 177.619 299.885 172.782C302.921 167.422 304.162 149.772 303.237 137.464C302.44 126.591 300.81 119.326 285.862 112.549C270.41 105.546 213.427 97.1576 161.024 97.1576C108.636 97.1576 51.6534 105.546 36.2026 112.549C21.2544 119.326 19.6243 126.59 18.8128 137.464C17.9034 149.772 19.144 167.422 22.1823 172.782C24.9238 177.619 28.4781 187.595 56.4535 201.058C73.7742 209.408 91.6117 213.798 103.781 216.115C104.322 216.227 104.726 216.692 104.726 217.273V217.402L104.71 218.413C104.71 239.499 129.921 256.607 161.026 256.643C192.147 256.607 217.356 239.499 217.356 218.413L217.34 217.327V217.272C217.34 216.672 217.782 216.168 218.36 216.094C230.506 213.798 248.328 209.392 265.614 201.058Z" fill="white"/>
<path id="Dr. Oetker" fill-rule="evenodd" clip-rule="evenodd" d="M104.854 145.344C105.738 132.597 110.846 122.881 124.136 122.881C137.357 122.881 142.523 132.607 143.418 145.344C143.514 146.738 143.578 148.178 143.578 149.644C143.578 153.655 143.206 157.463 142.401 160.875C142.4 160.878 142.401 160.882 142.401 160.885L142.401 160.89L142.401 160.892L142.401 160.895C140.238 170.059 134.811 176.386 124.136 176.386C113.396 176.386 108.014 170.049 105.871 160.895L117.057 160.875C117.937 165.505 119.886 168.49 124.136 168.49C127.957 168.49 129.994 165.492 131.015 160.875C131.712 157.755 131.933 153.865 131.933 149.664C131.933 148.179 131.92 146.727 131.853 145.344C131.451 137.021 129.635 130.837 124.136 130.837C118.176 130.837 116.714 137.018 116.419 145.344C116.368 146.731 116.359 148.179 116.359 149.664C116.359 153.865 116.461 157.742 117.057 160.875H105.871C105.071 157.478 104.714 153.662 104.714 149.644C104.714 148.179 104.756 146.747 104.854 145.344ZM204.355 145.344V124.066H214.385V145.344V150.367L217.874 145.344L224.594 135.7H235.621L228.622 145.344L224.375 151.191L229.619 160.875L237.276 175H226.269L218.971 160.875L217.934 158.846L216.399 160.875L214.385 163.527V175H204.355V160.875V145.344ZM34.9839 124.328V145.344V160.875V175H52.3916C63.3009 175 68.3859 170.532 70.2779 160.875H58.5753L70.2779 160.855C70.9351 157.517 71.1951 153.567 71.1951 148.96C71.1951 147.727 71.1774 146.515 71.1353 145.344C70.6529 132.495 67.1739 124.328 53.0895 124.328H34.9839ZM59.59 145.344H71.1353L59.59 145.364C59.6264 146.494 59.6299 147.7 59.6299 148.98C59.6299 154.319 59.3904 158.18 58.573 160.875C57.3977 164.751 55.0548 166.219 50.617 166.219H45.8114V160.875V145.344V132.525H50.3976C57.6883 132.525 59.3092 136.876 59.59 145.344ZM185.631 127.442V135.238H180.546V142.109H185.631V145.344V160.875V164.612C185.631 172.586 187.086 175 194.923 175C196.894 175 198.658 174.828 200.487 174.65C200.804 174.619 201.122 174.588 201.444 174.557V167.545C200.778 167.619 199.983 167.686 199.19 167.686C196.286 167.686 195.641 166.439 195.641 163.386V160.875V145.344V142.109H201.444V135.238H195.641V127.442H185.631ZM156.14 135.017C158.229 133.991 160.55 133.508 163.139 133.49C164.838 133.49 166.471 133.728 168.024 134.193C169.612 134.623 171.082 135.308 172.411 136.202C173.76 137.097 174.901 138.167 175.841 139.417C177.146 141.157 178.155 143.142 178.871 145.344C178.873 145.35 178.869 145.358 178.871 145.364C179 145.776 179.123 146.191 179.23 146.61C179.934 149.329 180.287 152.575 180.287 156.394V158.022H156.439V158.464C156.439 159.314 156.48 160.122 156.598 160.875C156.862 162.617 157.447 164.087 158.333 165.295C159.61 167.046 161.24 167.907 163.218 167.907C164.733 167.907 166.018 167.403 167.127 166.38C168.234 165.375 168.995 164.009 169.42 162.241H179.928C179.67 165.055 178.796 167.495 177.316 169.655C175.875 171.799 173.978 173.463 171.593 174.638C169.209 175.811 166.487 176.386 163.438 176.386C159.888 176.386 156.814 175.528 154.186 173.814C151.58 172.101 149.57 169.688 148.184 166.521C147.429 164.811 146.873 162.929 146.529 160.875C146.238 159.158 146.09 157.311 146.09 155.35C146.09 152.071 146.514 149.088 147.306 146.369L147.353 146.213C147.442 145.921 147.531 145.628 147.625 145.344C148.411 143.029 149.466 141.037 150.776 139.377C152.273 137.477 154.07 136.021 156.14 135.017ZM252.111 133.49C249.543 133.508 247.182 133.991 245.092 135.017C243.022 136.021 241.246 137.477 239.728 139.377C238.419 141.037 237.364 143.029 236.578 145.344C236.468 145.678 236.361 146.025 236.259 146.369C235.463 149.088 235.082 152.071 235.082 155.35C235.082 157.311 235.213 159.158 235.501 160.875C235.843 162.929 236.402 164.811 237.156 166.521C238.542 169.688 240.534 172.101 243.138 173.814C245.784 175.528 248.88 176.386 252.41 176.386C255.478 176.386 258.182 175.811 260.566 174.638C262.934 173.463 264.864 171.799 266.309 169.655C267.786 167.495 268.623 165.055 268.881 162.241H258.392C257.967 164.009 257.208 165.375 256.099 166.38C254.988 167.403 253.687 167.907 252.191 167.907C250.216 167.907 248.581 167.046 247.326 165.295C246.435 164.087 245.843 162.617 245.571 160.875C245.453 160.122 245.391 159.314 245.391 158.464V158.022H269.28V156.394C269.28 152.575 268.927 149.329 268.203 146.61C268.095 146.191 267.973 145.776 267.844 145.364C267.843 145.361 267.844 145.357 267.844 145.354C267.844 145.35 267.845 145.347 267.844 145.344C267.141 143.142 266.115 141.157 264.793 139.417C263.87 138.167 262.731 137.097 261.363 136.202C260.034 135.308 258.567 134.623 256.977 134.193C255.426 133.728 253.811 133.49 252.111 133.49ZM85.1133 140.944C87.1462 137.145 89.9624 134.675 94.0863 134.675C94.6784 134.675 95.331 134.742 95.9008 134.816V144.46C94.8869 144.388 93.8092 144.319 92.7902 144.319C91.3743 144.319 89.888 144.615 88.6227 145.324L75.3838 145.344H88.6227C86.7748 146.364 85.3924 148.275 85.3924 151.392V160.875V175H75.3825V160.875V145.344V135.7H84.9537V140.944H85.1133ZM282.46 140.944C284.493 137.145 287.314 134.675 291.433 134.675C292.03 134.675 292.671 134.742 293.248 134.816V144.46C292.23 144.388 291.154 144.319 290.137 144.319C288.716 144.319 287.234 144.615 285.969 145.324L272.731 145.344H285.969C284.122 146.364 282.759 148.275 282.759 151.392V160.875V175H272.729V160.875V145.344V135.7H282.301V140.944H282.46ZM167.565 143.696C166.511 142.279 165.09 141.587 163.278 141.587C161.434 141.587 159.914 142.326 158.732 143.797C158.357 144.253 158.016 144.767 157.735 145.344C157.112 146.606 156.703 148.157 156.499 149.985H169.679C169.442 148.133 169.059 146.592 168.503 145.344C168.228 144.716 167.921 144.164 167.565 143.696ZM252.231 141.587C254.042 141.587 255.484 142.279 256.518 143.696C256.873 144.164 257.197 144.716 257.475 145.344C258.031 146.592 258.431 148.133 258.652 149.985H245.491C245.682 148.157 246.085 146.606 246.708 145.344C246.989 144.767 247.317 144.253 247.685 143.797C248.886 142.326 250.403 141.587 252.231 141.587ZM88.8022 175V166.34H97.3963V175H88.8022Z" fill="#17469D"/>
<path id="Kopf" fill-rule="evenodd" clip-rule="evenodd" d="M158.608 189.107C157.717 189.146 156.697 189.333 156.065 189.238C155.472 189.165 154.845 189.238 154.307 189.107C153.88 189.017 153.454 189.071 152.971 189.146C152.286 189.239 151.713 189.46 151.212 189.794C150.694 190.146 149.307 191.984 149.044 192.227C148.765 192.465 147.876 193.209 147.396 193.693C146.912 194.193 146.434 195.268 146.338 195.826C146.248 196.4 146.285 197.551 146.338 197.83C146.376 198.087 146.338 198.498 146.265 198.811C146.191 199.126 145.97 200.168 145.88 200.295C145.785 200.405 145.711 201.187 145.675 202.224C145.654 203.263 145.749 203.913 145.598 204.638C145.47 205.36 145.412 206.065 144.097 207.532C142.802 208.977 142.858 209.218 142.745 209.535C142.633 209.868 142.559 210.071 142.892 210.61C143.244 211.132 143.485 211.11 143.782 211.389C144.042 211.649 145.06 211.818 144.711 212.967C144.321 214.153 145.006 214.227 145.023 214.654C145.044 215.081 144.913 215.228 144.949 215.602C145.007 215.971 145.356 216.455 145.356 216.808C145.356 217.345 145.397 217.735 145.249 219.217C145.249 219.217 145.06 220.982 147.524 221.593C149.971 222.206 151.659 222.947 152.25 223.838C152.824 224.73 152.898 225.916 152.582 226.991C152.27 228.087 151.582 229.162 149.898 230.348C148.155 231.576 145.119 232.593 141.487 234.636C137.875 236.672 137.244 237.657 136.67 238.381C136.243 238.918 135.596 240.161 135.485 240.925C135.411 241.553 135.244 242.538 136.353 243.038C137.595 243.596 138.412 243.409 138.412 243.409H181.965C181.965 243.409 183.784 243.631 184.71 242.501C185.673 241.331 184.857 239.067 184.635 238.512C184.357 237.864 183.431 236.748 182.504 235.97C181.468 235.097 178.205 233.074 176.482 232.109C175.057 231.333 170.294 228.625 168.405 226.416C166.682 224.393 165.997 221.926 166.551 220.555C167.13 219.201 168.183 219.016 168.962 219.086C169.609 219.144 171.24 219.516 171.832 219.403C172.61 219.239 173.277 218.979 173.963 217.771C174.651 216.584 176.631 216.177 177.057 215.878C177.484 215.602 179.631 214.227 179.743 212.169C179.91 209.424 178.837 209.388 178.501 206.511C178.169 203.635 177.633 203.19 176.558 201.91C175.705 200.909 174.965 198.61 174.611 197.773C173.909 196.085 172.426 195.12 171.741 194.973C171.074 194.806 169.057 193.841 168.147 192.838C167.388 192.005 166.126 190.741 165.037 190.5C163.942 190.262 162.052 190.205 161.383 189.852C160.716 189.499 159.531 189.108 159.346 189.166C159.14 189.201 159.493 189.09 158.608 189.107ZM107.01 219.084C107.01 200.054 130.501 184.617 159.476 184.617C188.47 184.617 211.961 200.054 211.961 219.084C211.961 238.12 188.47 253.556 159.476 253.556C130.501 253.556 107.01 238.12 107.01 219.084Z" fill="#ED1C24"/>
</g>
</g>
</svg>
