<svg width="320" height="320" viewBox="0 0 320 320" fill="none" xmlns="http://www.w3.org/2000/svg">
<g id="logos/brands/levis">
<g id="Levis">
<path id="Combined Shape" fill-rule="evenodd" clip-rule="evenodd" d="M0 94.1109H316.508L286.542 230.382C266.856 219.008 248.919 214.196 222.89 214.196C208.775 214.196 199.188 215.489 189.205 217.22V217.258C174.55 220.977 164.926 224.695 158.582 228.195C138.677 219.227 117.023 214.415 96.243 214.415C70.6511 214.415 47.4653 220.977 27.7792 230.382L0 94.1109ZM257.888 229.726C263.137 229.726 267.512 234.101 267.512 239.35C267.512 244.6 263.137 248.975 257.888 248.975C252.638 248.975 248.263 244.819 248.263 239.35C248.263 234.101 252.638 229.726 257.888 229.726ZM257.888 231.476C262.481 231.476 265.981 234.976 265.981 239.35C265.981 243.725 262.481 247.444 257.888 247.444C253.513 247.444 249.794 243.725 249.794 239.35C249.794 234.976 253.294 231.476 257.888 231.476ZM254.607 234.538H257.231C259.856 234.538 261.825 235.194 261.825 237.601C261.825 238.694 261.169 239.569 259.637 240.444L261.387 244.163H259.637L258.106 241.319H256.575V244.163H254.607V234.538ZM256.575 236.507C258.763 236.507 259.637 236.944 259.637 237.601C259.637 238.913 258.106 238.913 256.575 238.913V236.507Z" fill="#9A3037"/>
<path id="Combined Shape_2" fill-rule="evenodd" clip-rule="evenodd" d="M220.922 131.296L220.047 136.327C225.296 133.046 227.484 130.202 227.484 126.484C227.484 122.328 224.64 120.14 220.484 120.14C216.328 120.14 213.703 122.546 213.703 126.046C213.703 130.639 216.766 131.296 220.922 131.296ZM127.959 128.233H146.333L157.707 160.825L169.3 128.233H187.236L167.769 178.105H146.989L127.959 128.233ZM101.93 136.545C94.7119 136.545 93.1808 140.701 93.1808 148.138H110.679C110.679 139.826 108.93 136.545 101.93 136.545ZM93.1808 157.981C93.1808 167.168 94.9306 170.449 102.586 170.449C109.148 170.449 110.679 168.481 110.679 164.325H126.428C125.991 174.605 119.429 181.167 101.493 181.167C83.3377 181.167 75.4633 172.199 75.4633 153.388C75.4633 134.139 81.1504 126.702 102.586 126.702C122.272 126.702 127.522 135.889 127.522 157.981H93.1808ZM39.5909 128.233H56.4334V166.293H73.2759V178.105H39.5909V128.233ZM226.609 162.356H244.326C244.764 168.043 248.263 170.23 253.95 170.23C258.763 170.23 260.731 168.481 260.731 164.762C260.731 159.504 254.605 158.639 247.612 157.652C238.314 156.339 227.484 154.81 227.484 142.451C227.484 131.514 235.577 126.702 253.075 126.702C269.918 126.702 276.043 131.514 276.261 142.014H259.419C258.325 137.858 256.575 135.889 251.982 135.889C247.607 135.889 244.326 138.295 244.326 141.139C244.326 146.294 250.661 147.324 257.8 148.485C267.016 149.984 277.574 151.7 277.574 162.793C277.574 175.261 270.355 179.198 252.419 179.198C233.171 179.198 226.827 174.386 226.609 162.356ZM208.454 178.105H192.049V128.015H208.454V178.105Z" fill="white"/>
</g>
</g>
</svg>
