<svg width="320" height="320" viewBox="0 0 320 320" fill="none" xmlns="http://www.w3.org/2000/svg">
<g id="logos/brands/nivea">
<g id="logos/brands/nivea_2">
<path id="Fill 1" fill-rule="evenodd" clip-rule="evenodd" d="M319.8 159.899C319.8 248.11 248.208 319.605 159.902 319.605C71.5883 319.605 0 248.11 0 159.899C0 71.7013 71.5883 0.203979 159.902 0.203979C248.208 0.203979 319.8 71.7013 319.8 159.899Z" fill="#273560"/>
<path id="Combined Shape" fill-rule="evenodd" clip-rule="evenodd" d="M222.544 186.161C222.544 186.161 243.36 148.39 253.934 129.75L285.339 186.161H267.381L264.572 180.486H243.271L240.382 186.161H222.544ZM201.94 147.273H218.336V134.041H184.896V186.161H218.336V172.549H201.94V164.441H218.336V154.564L201.94 154.582V147.273ZM247.402 171.874H260.336C260.297 171.833 253.934 158.51 253.934 158.51C253.934 158.51 247.441 171.833 247.402 171.874ZM163.919 134.041L152.213 157.399C151.281 155.768 140.562 134.041 140.562 134.041H122.362L152.213 190.041C152.213 190.041 182.168 134.041 182.104 134.041H163.919ZM119.572 186.161H102.509V134.039C102.509 134.039 119.572 134.103 119.572 134.039V186.161ZM70.0381 134.037V154.208L42.3127 130.094V186.161H59.3916V165.969L87.0965 190.041V134.037H70.0381Z" fill="#FFFFFE"/>
</g>
</g>
</svg>
