<svg width="320" height="320" viewBox="0 0 320 320" fill="none" xmlns="http://www.w3.org/2000/svg">
<g id="logos/brands/seat">
<g id="SEAT_Logo_from_2017">
<g id="#ffffffff">
<path id="path2" d="M184.894 255.137C186.012 252.818 188.725 251.955 191.132 251.924C203.358 251.88 215.588 251.968 227.818 251.876C227.932 256.474 227.831 261.081 227.862 265.684C213.177 265.71 198.483 265.75 183.798 265.662C183.965 262.159 183.342 258.416 184.894 255.137Z" fill="white"/>
</g>
<path id="path5" d="M128.408 33.7627C163.485 32.5266 198.597 33.754 233.613 36.0027C237.3 36.3227 241.035 36.2964 244.664 37.0723C246.628 37.5457 248.75 38.2953 249.898 40.0794C250.946 42.0214 250.968 44.2877 251.239 46.4268C252.072 56.9342 252.318 67.4855 253.102 77.9929C251.586 78.177 250.069 77.9446 248.552 77.8964C221.545 76.4981 194.516 75.3364 167.465 75.3014C153.455 75.3408 139.428 75.2049 125.431 75.8844C122.038 76.3841 118.198 77.5194 116.239 80.5441C126.83 82.4246 137.398 84.4542 147.985 86.3699C183.071 92.9364 218.183 99.3583 253.269 105.916C253.238 112.57 253.252 119.225 253.265 125.879C233.534 122.613 213.839 119.089 194.122 115.718C151.702 108.406 109.295 100.993 66.8625 93.7518C66.9458 86.3655 67.2614 78.9836 67.4148 71.5929C67.6822 65.7408 67.5156 59.8099 68.8395 54.063C69.7293 50.0082 71.3776 45.9315 74.4504 43.034C79.7545 37.7825 87.4258 36.3052 94.5666 35.5644C105.819 34.5211 117.12 34.1792 128.408 33.7627Z" fill="#19191B"/>
<path id="path7" d="M66.6608 103.47C127.435 114.683 188.186 126.085 248.951 137.364C250.279 137.688 251.7 137.715 252.975 138.201L253.129 138.552C252.796 148.52 252.603 158.497 252.243 168.465C252.011 174.615 251.362 181.05 248.197 186.468C244.804 192.071 238.483 195.17 232.228 196.34C223.009 198.072 213.593 198.186 204.256 198.699C164.081 200.522 123.822 199.514 83.7129 196.752C80.5085 196.529 77.2471 196.472 74.1348 195.582C72.5216 195.073 70.8559 194.254 69.9441 192.763C68.9666 190.808 68.9052 188.577 68.6641 186.447C67.8049 174.817 67.349 163.165 66.7397 151.523C87.4301 152.838 108.156 153.574 128.885 154.035C148.901 154.359 168.916 154.355 188.932 154.552C193.249 154.731 197.918 153.907 201.192 150.874C201.67 150.326 202.446 149.818 202.367 148.998C193.346 147.643 184.377 145.96 175.373 144.478C139.147 138.284 102.904 132.147 66.6827 125.918C66.6389 118.436 66.6915 110.953 66.6608 103.47L66.6608 103.47Z" fill="#19191B"/>
<path id="path11" d="M253.721 243.35C275.744 243.236 297.771 243.354 319.798 243.293C319.969 246.159 319.89 249.044 319.838 251.915C310.751 251.906 301.668 251.915 292.581 251.911C292.616 263.689 292.625 275.468 292.576 287.247H281.03C280.789 276.577 280.995 265.899 280.921 255.225C280.793 254.094 281.319 252.787 280.649 251.788C278.724 252.033 276.787 251.862 274.858 251.911C267.814 251.893 260.769 251.946 253.725 251.889C253.694 249.044 253.681 246.195 253.721 243.35Z" fill="#19191B"/>
<path id="path14" d="M5.36986 244.831C8.43397 243.279 11.9671 243.275 15.3205 243.306C32.8504 243.332 50.3847 243.253 67.9145 243.341C67.9189 246.133 67.9364 248.925 67.9014 251.718C50.0822 251.876 32.2499 251.7 14.4307 251.801C12.9885 251.731 11.1474 252.323 10.8362 253.923C10.6871 255.159 10.5951 256.728 11.6997 257.583C12.6948 258.433 14.0888 258.438 15.3249 258.578C29.8345 259.788 44.3485 260.963 58.8581 262.177C62.229 262.585 65.9244 263.203 68.423 265.714C70.8384 268.104 71.3118 271.716 71.2197 274.955C71.1847 278.26 70.4307 281.842 67.9321 284.196C65.6438 286.142 62.5666 287.115 59.5814 286.935C40.4603 286.887 21.3304 286.992 2.20932 286.874C2.13041 284.104 2.05151 281.32 2.25753 278.554C20.2082 278.659 38.1633 278.571 56.114 278.598C57.337 278.633 58.6915 278.506 59.6208 277.625C60.7167 276.301 60.7693 274.328 60.0636 272.811C59.2351 271.492 57.5737 271.233 56.149 271.15C43.4279 270.063 30.7025 269.02 17.977 267.95C14.0318 267.564 9.95945 267.582 6.19836 266.175C3.87069 265.294 1.85425 263.523 0.977535 261.164C-0.0920541 258.74 0.460275 256.053 0.293699 253.502C0.0745212 249.956 2.11726 246.322 5.36986 244.831Z" fill="#19181B"/>
<path id="path16" d="M86.1808 243.319C108.603 243.284 131.025 243.315 153.447 243.306C153.648 243.328 154.047 243.38 154.249 243.407C154.244 246.19 154.187 248.982 154.266 251.77C153.574 252.012 152.828 251.889 152.118 251.915C134.036 251.893 115.958 251.937 97.8805 251.893C97.8016 254.738 97.8586 257.587 97.8542 260.437C111.123 260.516 124.397 260.445 137.666 260.472C142.439 260.551 147.235 260.305 151.991 260.599C151.952 263.321 151.943 266.048 151.996 268.774C150.882 268.958 149.747 268.919 148.625 268.915C131.695 268.91 114.766 268.919 97.8367 268.91C97.9156 271.308 97.6263 273.916 98.8625 276.086C100.142 278.256 102.935 278.541 105.21 278.589C121.543 278.602 137.876 278.62 154.214 278.58C154.266 281.324 154.218 284.073 154.231 286.817C147.555 287.062 140.844 286.856 134.155 286.935C122.621 286.913 111.093 286.944 99.5638 286.94C95.5178 286.646 91.2877 285.072 88.811 281.715C86.6455 278.791 86.0449 275.038 86.137 271.483C86.1764 262.094 86.0888 252.704 86.1808 243.319Z" fill="#19181B"/>
<g id="g844">
<g id="g848">
<g id="g852">
<g id="g2339">
<path id="path838" fill-rule="evenodd" clip-rule="evenodd" d="M172.221 287.247H183.798L183.982 274.328L227.893 274.473L227.91 287.247H239.496L239.509 243.323L188.463 243.346C178.674 243.734 172.738 248.126 172.101 258.024L172.221 287.247Z" fill="#19191B"/>
</g>
<path id="path840" fill-rule="evenodd" clip-rule="evenodd" d="M227.818 251.876L227.862 265.684L183.798 265.662C183.905 263.515 181.943 251.956 190.813 251.919L227.818 251.876Z" fill="white"/>
</g>
</g>
</g>
</g>
</g>
</svg>
