<svg width="24" height="24" viewBox="0 0 24 24" fill="none" xmlns="http://www.w3.org/2000/svg">
<path fill-rule="evenodd" clip-rule="evenodd" d="M12 24C18.6274 24 24 18.6274 24 12C24 5.37258 18.6274 0 12 0C5.37258 0 0 5.37258 0 12C0 18.6274 5.37258 24 12 24Z" fill="#FEFB01"/>
<path fill-rule="evenodd" clip-rule="evenodd" d="M12.0947 19.5C12.056 19.5 12.018 19.4988 11.9801 19.4969H11.98C11.9557 19.4989 11.9304 19.5 11.9051 19.5C11.0165 19.5 10.4461 19.0705 9.89461 18.655C9.51372 18.3683 9.15436 18.0977 8.73095 18.0225C8.5243 17.9862 8.31864 17.9676 8.11991 17.9676C7.76186 17.9676 7.47938 18.0265 7.27315 18.0695C7.14783 18.0956 7.03976 18.1181 6.95758 18.1181C6.87174 18.1181 6.77875 18.0983 6.73832 17.9511C6.70319 17.8236 6.67779 17.7001 6.65333 17.5807C6.59034 17.2733 6.54564 17.0842 6.42473 17.0645C5.01532 16.8326 4.61192 16.5163 4.52196 16.2919C4.50921 16.2598 4.50201 16.2276 4.50025 16.1958C4.4957 16.1096 4.55301 16.0335 4.63297 16.0196C6.79955 15.6395 7.77115 13.2802 7.81149 13.1801C7.81258 13.1773 7.81377 13.1747 7.81495 13.1719C7.94757 12.8856 7.97349 12.6371 7.8924 12.4334C7.74371 12.06 7.25879 11.896 6.93776 11.7875C6.85923 11.761 6.78481 11.736 6.72604 11.7113C6.08556 11.4415 6.03224 11.1646 6.0574 11.0234C6.10035 10.783 6.40198 10.6154 6.64594 10.6154C6.71286 10.6154 6.77173 10.628 6.82126 10.6526C7.10939 10.7965 7.36908 10.8693 7.59313 10.8693C7.90278 10.8693 8.03791 10.7307 8.0544 10.7125C8.04653 10.5563 8.03682 10.3931 8.02682 10.2248C7.96226 9.13344 7.8823 7.77745 8.20641 7.00343C9.17768 4.68325 11.2373 4.50303 11.8454 4.50303C11.861 4.50303 12.1121 4.5002 12.1121 4.5002L12.148 4.5C12.7576 4.5 14.8217 4.68058 15.7936 7.00202C16.1177 7.77644 16.0375 9.13365 15.9729 10.2241L15.9702 10.2715C15.9613 10.4234 15.9526 10.571 15.9454 10.7123C15.9609 10.7291 16.0852 10.8566 16.3658 10.8681H16.3662C16.5795 10.8594 16.8246 10.7869 17.0936 10.6526C17.1724 10.6135 17.26 10.6052 17.3196 10.6052C17.4107 10.6052 17.503 10.6239 17.5796 10.6579L17.5843 10.66C17.8019 10.7421 17.9444 10.9047 17.9475 11.0744C17.9503 11.2343 17.8357 11.4747 17.2737 11.7113C17.2155 11.7356 17.141 11.7608 17.0622 11.7875C16.7408 11.8961 16.2561 12.06 16.1075 12.4333C16.0263 12.6369 16.0523 12.8853 16.1848 13.1717C16.186 13.1745 16.1874 13.1771 16.1884 13.1801C16.2287 13.2802 17.1994 15.6387 19.367 16.0192C19.447 16.0333 19.5042 16.1093 19.4998 16.1956C19.498 16.228 19.4906 16.2606 19.4776 16.2922C19.3882 16.515 18.9851 16.8309 17.5752 17.063C17.4601 17.0818 17.4154 17.2417 17.3467 17.577C17.3217 17.6991 17.2963 17.8189 17.2615 17.9449C17.2315 18.0544 17.1675 18.1056 17.0599 18.1056H17.0423C16.9676 18.1056 16.8614 18.0913 16.7268 18.0632C16.4882 18.0134 16.2205 17.9676 15.88 17.9676C15.6812 17.9676 15.4755 17.9862 15.2687 18.0225C14.8457 18.0977 14.4866 18.3678 14.1064 18.6541C13.5538 19.0705 12.9836 19.5 12.0947 19.5Z" fill="white"/>
<path d="M12.0947 19.5C12.056 19.5 12.018 19.4988 11.9801 19.4969H11.98C11.9557 19.4989 11.9304 19.5 11.9051 19.5C11.0165 19.5 10.4461 19.0705 9.89461 18.655C9.51372 18.3683 9.15436 18.0977 8.73095 18.0225C8.5243 17.9862 8.31864 17.9676 8.11991 17.9676C7.76186 17.9676 7.47938 18.0265 7.27315 18.0695C7.14783 18.0956 7.03976 18.1181 6.95758 18.1181C6.87174 18.1181 6.77875 18.0983 6.73832 17.9511C6.70319 17.8236 6.67779 17.7001 6.65333 17.5807C6.59034 17.2733 6.54564 17.0842 6.42473 17.0645C5.01532 16.8326 4.61192 16.5163 4.52196 16.2919C4.50921 16.2598 4.50201 16.2276 4.50025 16.1958C4.4957 16.1096 4.55301 16.0335 4.63297 16.0196C6.79955 15.6395 7.77115 13.2802 7.81149 13.1801C7.81258 13.1773 7.81377 13.1747 7.81495 13.1719C7.94757 12.8856 7.97349 12.6371 7.8924 12.4334C7.74371 12.06 7.25879 11.896 6.93776 11.7875C6.85923 11.761 6.78481 11.736 6.72604 11.7113C6.08556 11.4415 6.03224 11.1646 6.0574 11.0234C6.10035 10.783 6.40198 10.6154 6.64594 10.6154C6.71286 10.6154 6.77173 10.628 6.82126 10.6526C7.10939 10.7965 7.36908 10.8693 7.59313 10.8693C7.90278 10.8693 8.03791 10.7307 8.0544 10.7125C8.04653 10.5563 8.03682 10.3931 8.02682 10.2248C7.96226 9.13344 7.8823 7.77745 8.20641 7.00343C9.17768 4.68325 11.2373 4.50303 11.8454 4.50303C11.861 4.50303 12.1121 4.5002 12.1121 4.5002L12.148 4.5C12.7576 4.5 14.8217 4.68058 15.7936 7.00202C16.1177 7.77644 16.0375 9.13365 15.9729 10.2241L15.9702 10.2715C15.9613 10.4234 15.9526 10.571 15.9454 10.7123C15.9609 10.7291 16.0852 10.8566 16.3658 10.8681H16.3662C16.5795 10.8594 16.8246 10.7869 17.0936 10.6526C17.1724 10.6135 17.26 10.6052 17.3196 10.6052C17.4107 10.6052 17.503 10.6239 17.5796 10.6579L17.5843 10.66C17.8019 10.7421 17.9444 10.9047 17.9475 11.0744C17.9503 11.2343 17.8357 11.4747 17.2737 11.7113C17.2155 11.7356 17.141 11.7608 17.0622 11.7875C16.7408 11.8961 16.2561 12.06 16.1075 12.4333C16.0263 12.6369 16.0523 12.8853 16.1848 13.1717C16.186 13.1745 16.1874 13.1771 16.1884 13.1801C16.2287 13.2802 17.1994 15.6387 19.367 16.0192C19.447 16.0333 19.5042 16.1093 19.4998 16.1956C19.498 16.228 19.4906 16.2606 19.4776 16.2922C19.3882 16.515 18.9851 16.8309 17.5752 17.063C17.4601 17.0818 17.4154 17.2417 17.3467 17.577C17.3217 17.6991 17.2963 17.8189 17.2615 17.9449C17.2315 18.0544 17.1675 18.1056 17.0599 18.1056H17.0423C16.9676 18.1056 16.8614 18.0913 16.7268 18.0632C16.4882 18.0134 16.2205 17.9676 15.88 17.9676C15.6812 17.9676 15.4755 17.9862 15.2687 18.0225C14.8457 18.0977 14.4866 18.3678 14.1064 18.6541C13.5538 19.0705 12.9836 19.5 12.0947 19.5" stroke="#242E39" stroke-width="0.5"/>
</svg>
