<svg width="12" height="12" viewBox="0 0 12 12" fill="none" xmlns="http://www.w3.org/2000/svg">
<path fill-rule="evenodd" clip-rule="evenodd" d="M6 12C9.31371 12 12 9.31371 12 6C12 2.68629 9.31371 0 6 0C2.68629 0 0 2.68629 0 6C0 9.31371 2.68629 12 6 12Z" fill="black"/>
<path fill-rule="evenodd" clip-rule="evenodd" d="M8.04048 3.16524C7.73422 2.81405 7.61747 2.45777 7.57517 2.20837H7.96095C7.96095 2.20837 7.88481 2.86325 8.44487 3.50625L8.45333 3.51474C8.30105 3.41634 8.1623 3.29758 8.04048 3.16524ZM4.32989 6.44472C4.01856 6.68733 3.85274 6.92316 3.80367 7.3456C3.80198 7.65608 3.87812 8.09549 4.29266 8.3873C4.34173 8.41953 4.38911 8.44838 4.43649 8.47382C4.24698 8.21595 4.20637 7.91565 4.20806 7.68661C4.25713 7.26417 4.42295 7.02834 4.73428 6.78573C5.18097 6.45829 5.73764 6.64322 5.73764 6.64322V5.22658C5.60398 5.20622 5.46861 5.19774 5.33325 5.20113V6.30221C5.33325 6.30221 4.77658 6.11728 4.32989 6.44472ZM2.70555 9.12531L2.7993 9.21906C2.78759 9.20887 2.75243 9.17626 2.70555 9.12531ZM9.9 5.55063V4.16283C9.80694 4.17301 9.66312 4.16283 9.49392 4.12381V5.21131C9.49392 5.21131 9.00154 5.19095 8.63606 5.09425C8.12677 4.95852 7.80021 4.74984 7.80021 4.74984C7.80021 4.74984 7.57517 4.60054 7.55656 4.59036V7.45588C7.55656 7.61536 7.51426 8.01405 7.38736 8.34658C7.23355 8.74944 7.00114 9.02531 6.93046 9.1092C6.92494 9.11575 6.92041 9.12113 6.91698 9.12531C6.91698 9.12531 6.60396 9.51213 6.05405 9.7717C5.59479 9.9886 5.18635 10.0002 5.02512 10.0048C5.01231 10.0051 5.00106 10.0055 4.99147 10.0058C4.99147 10.0058 4.23852 10.0381 3.56002 9.5766L3.55664 9.5732C3.68185 9.70045 3.8189 9.81582 3.96611 9.91761C4.6446 10.3774 5.39755 10.3468 5.39755 10.3468C5.40714 10.3465 5.41839 10.3461 5.43121 10.3458C5.59243 10.3412 6.00087 10.3296 6.46013 10.1127C7.01004 9.85314 7.32306 9.46632 7.32306 9.46632C7.32649 9.46214 7.33103 9.45676 7.33655 9.45021C7.40722 9.36632 7.63964 9.09045 7.79344 8.68759C7.92034 8.35506 7.96264 7.95637 7.96264 7.79689V4.92968C7.97956 4.93986 8.20629 5.08916 8.20629 5.08916C8.20629 5.08916 8.53285 5.29784 9.04215 5.43356C9.40762 5.53027 9.9 5.55063 9.9 5.55063Z" fill="#EE1D52"/>
<path d="M9.51111 4.11718V5.20188C9.51111 5.20188 9.01715 5.18157 8.65051 5.08512C8.13957 4.94974 7.81197 4.7416 7.81197 4.7416C7.81197 4.7416 7.58451 4.59269 7.56754 4.58253V7.44235C7.56754 7.60142 7.5251 7.99909 7.39779 8.33076C7.23144 8.76396 6.97343 9.04995 6.9259 9.10748C6.9259 9.10748 6.61187 9.4933 6.0602 9.75221C5.56285 9.98573 5.12491 9.98066 4.99421 9.98573C4.99421 9.98573 4.23885 10.0162 3.55817 9.55761L3.55477 9.55422C3.48348 9.48146 3.41558 9.40531 3.35278 9.32577C3.13551 9.04995 3.0031 8.72504 2.96916 8.63197V8.63028C2.91484 8.46952 2.80281 8.08031 2.81808 7.70634C2.84524 7.04469 3.06931 6.63687 3.12872 6.53533C3.28488 6.25781 3.49027 6.00906 3.73131 5.80092C3.94519 5.62155 4.18792 5.47771 4.44763 5.37787C4.72941 5.25941 5.03155 5.1968 5.33709 5.19173V6.28996C5.33709 6.28996 4.77863 6.10551 4.33051 6.43211C4.01818 6.67409 3.85183 6.90931 3.8026 7.33067C3.8009 7.64034 3.87729 8.07862 4.29486 8.37137C4.34409 8.40352 4.39162 8.43229 4.43914 8.45767C4.51213 8.55582 4.6004 8.64212 4.70225 8.7132C5.11133 8.98226 5.45252 9.00087 5.89046 8.82657C6.18242 8.70981 6.40139 8.44752 6.50324 8.15477C6.56774 7.97201 6.56604 7.78926 6.56604 7.59973V2.20837H7.58451C7.62695 2.45713 7.74237 2.81249 8.05131 3.16278C8.17522 3.29477 8.31441 3.41322 8.46548 3.51137C8.50962 3.56044 8.73877 3.79735 9.03413 3.94457C9.1852 4.02072 9.34646 4.07826 9.51111 4.11718Z" fill="white"/>
<path d="M2.55671 8.3064L2.65046 8.40015C2.63796 8.38925 2.60046 8.35654 2.55671 8.3064Z" fill="#69C9D0"/>
<path d="M4.43517 5.38922C4.17456 5.48905 3.93425 5.63288 3.72102 5.81225C3.47902 6.02038 3.27594 6.27082 3.12025 6.54833C3.06102 6.64985 2.83763 7.05596 2.81055 7.71928C2.79532 8.09493 2.90871 8.48243 2.96117 8.64318V8.64487C2.99502 8.73625 3.12702 9.06283 3.34363 9.33864C3.40625 9.41817 3.47394 9.49432 3.54502 9.56708C3.31486 9.40802 3.11179 9.21681 2.93748 8.99853C2.72255 8.72609 2.59055 8.4029 2.55671 8.30814V8.30475C2.50255 8.144 2.38917 7.75481 2.40609 7.37916C2.43317 6.71754 2.65655 6.30974 2.71579 6.20821C2.87148 5.9307 3.07456 5.68026 3.31656 5.47213C3.52979 5.29277 3.77179 5.14894 4.03071 5.0491C4.19317 4.98141 4.3624 4.93234 4.53502 4.90019C4.79563 4.85451 5.06133 4.85112 5.32364 4.88835V5.20308C5.01733 5.20816 4.7161 5.27077 4.43517 5.38922Z" fill="#69C9D0"/>
<path fill-rule="evenodd" clip-rule="evenodd" d="M6.54887 2.21817H7.56425C7.52871 2.01173 7.54395 1.87805 7.54564 1.87805H6.14271V7.26917C6.14271 7.27391 6.14271 7.27865 6.14271 7.28339C6.14276 7.46784 6.1428 7.64601 6.0801 7.82419C5.97856 8.11524 5.76025 8.37921 5.46917 8.49596C5.08502 8.64995 4.77533 8.65333 4.4284 8.46889C4.50117 8.56703 4.58917 8.65333 4.69071 8.72271C5.09686 8.99176 5.43871 9.01206 5.87533 8.83608C6.16471 8.71933 6.38302 8.45535 6.48625 8.16431C6.54887 7.98156 6.54887 7.79881 6.54887 7.60929V2.21817ZM9.48333 4.12689V3.82738C9.31072 3.846 8.96041 3.79185 8.60164 3.61418C8.54579 3.58541 8.49333 3.55495 8.44087 3.52111C8.48656 3.57018 8.71502 3.80877 9.00779 3.95429C9.15841 4.03044 9.31918 4.08797 9.48333 4.12689Z" fill="#69C9D0"/>
</svg>
