<svg width="12" height="12" viewBox="0 0 12 12" fill="none" xmlns="http://www.w3.org/2000/svg">
<path fill-rule="evenodd" clip-rule="evenodd" d="M6 12C9.31371 12 12 9.31371 12 6C12 2.68629 9.31371 0 6 0C2.68629 0 0 2.68629 0 6C0 9.31371 2.68629 12 6 12Z" fill="#54ABED"/>
<path fill-rule="evenodd" clip-rule="evenodd" d="M9.20151 3.79129C9.51974 3.57986 9.86696 3.15483 9.98208 2.75587C9.68417 2.95169 9.2479 3.14479 8.89672 3.2214C8.61553 2.88935 8.21849 2.72119 7.77507 2.72119C6.92371 2.72119 6.23341 3.48609 6.23341 4.42957C6.23341 4.56347 6.24704 4.69388 6.27334 4.81891C4.99208 4.74767 3.85611 4.0675 3.09578 3.03388C2.96307 3.2862 2.88703 3.57969 2.88703 3.89279C2.88703 4.48553 3.1592 5.00844 3.57286 5.3148C3.32015 5.30593 3.08244 5.22907 2.87459 5.10112C2.87444 5.10824 2.87444 5.11536 2.87444 5.1226C2.87444 5.55435 3.01902 5.94875 3.25743 6.24958C3.39829 6.42732 3.5719 6.57239 3.7678 6.6732C3.87602 6.72889 4.11111 6.7978 4.11111 6.7978C4.11111 6.7978 3.84555 6.85775 3.70496 6.85775C3.60562 6.85775 3.50902 6.84701 3.41491 6.82707C3.61107 7.50578 4.18039 7.99975 4.85502 8.01349C4.32741 8.47174 3.66269 8.74488 2.94038 8.74488C2.81594 8.74488 2.69324 8.73676 2.57263 8.72098C3.25489 9.20571 4.08321 9.47119 4.95382 9.47119C7.78945 9.47119 9.32215 6.88532 9.32215 4.62767C9.32215 4.5536 9.32061 4.47995 9.31765 4.40667C9.61889 4.16576 9.84049 4.04939 10.0726 3.72574C9.7795 3.79128 9.51332 3.75002 9.20151 3.79129Z" fill="white"/>
</svg>
